<svg width="45" height="45" viewBox="0 0 45 45" fill="none" xmlns="http://www.w3.org/2000/svg">
<path d="M32.8125 20.3C37.9384 20.3 42.0938 16.1446 42.0938 11.0187C42.0938 5.89285 37.9384 1.73749 32.8125 1.73749C27.6866 1.73749 23.5312 5.89285 23.5312 11.0187C23.5312 16.1446 27.6866 20.3 32.8125 20.3Z" fill="#C2D6E7"/>
<path d="M17.8936 38.5188C17.4811 38.5188 17.2061 38.2438 17.2061 37.8313V21.95C17.2061 21.5375 17.4811 21.2625 17.8936 21.2625C18.3061 21.2625 18.5811 21.5375 18.5811 21.95V37.8313C18.5811 38.175 18.2373 38.5188 17.8936 38.5188Z" fill="#1F62FE"/>
<path d="M33.7068 13.2875H23.9443C23.5318 13.2875 23.2568 13.0125 23.2568 12.6C23.2568 12.1875 23.5318 11.9125 23.9443 11.9125H33.7068C34.1193 11.9125 34.3943 12.1875 34.3943 12.6C34.3943 13.0125 34.0506 13.2875 33.7068 13.2875Z" fill="#1F62FE"/>
<path d="M37.8314 22.6375H7.16895C6.75645 22.6375 6.48145 22.3625 6.48145 21.95C6.48145 21.5375 6.75645 21.2625 7.16895 21.2625H37.8314C38.2439 21.2625 38.5189 21.5375 38.5189 21.95C38.5189 22.3625 38.1752 22.6375 37.8314 22.6375Z" fill="#1F62FE"/>
<path d="M37.8314 30.5438H7.16895C6.75645 30.5438 6.48145 30.2688 6.48145 29.8563C6.48145 29.4438 6.75645 29.1688 7.16895 29.1688H37.8314C38.2439 29.1688 38.5189 29.4438 38.5189 29.8563C38.5189 30.2688 38.1752 30.5438 37.8314 30.5438Z" fill="#1F62FE"/>
<path d="M35.0127 38.5188H9.9877C8.0627 38.5188 6.48145 36.9375 6.48145 35.0125V9.98751C6.48145 8.06251 8.0627 6.48126 9.9877 6.48126H34.9439C36.8689 6.48126 38.4502 8.06251 38.4502 9.98751V34.9438C38.5189 36.9375 36.9377 38.5188 35.0127 38.5188ZM9.9877 7.85626C8.81895 7.85626 7.85645 8.81876 7.85645 9.98751V34.9438C7.85645 36.1125 8.81895 37.075 9.9877 37.075H34.9439C36.1127 37.075 37.0752 36.1125 37.0752 34.9438V9.98751C37.0752 8.81876 36.1127 7.85626 34.9439 7.85626H9.9877Z" fill="#1F62FE"/>
<path d="M33.7068 17.275H23.9443C23.5318 17.275 23.2568 17 23.2568 16.5875C23.2568 16.175 23.5318 15.9 23.9443 15.9H33.7068C34.1193 15.9 34.3943 16.175 34.3943 16.5875C34.3943 17 34.0506 17.275 33.7068 17.275Z" fill="#1F62FE"/>
<path d="M30.4754 26.625H29.6504C29.2379 26.625 28.9629 26.35 28.9629 25.9375C28.9629 25.525 29.2379 25.25 29.6504 25.25H30.4754C30.8879 25.25 31.1629 25.525 31.1629 25.9375C31.1629 26.35 30.8879 26.625 30.4754 26.625ZM26.3504 26.625H25.5254C25.1129 26.625 24.8379 26.35 24.8379 25.9375C24.8379 25.525 25.1129 25.25 25.5254 25.25H26.3504C26.7629 25.25 27.0379 25.525 27.0379 25.9375C27.0379 26.35 26.7629 26.625 26.3504 26.625ZM22.2254 26.625H21.4004C20.9879 26.625 20.7129 26.35 20.7129 25.9375C20.7129 25.525 20.9879 25.25 21.4004 25.25H22.2254C22.6379 25.25 22.9129 25.525 22.9129 25.9375C22.9129 26.35 22.6379 26.625 22.2254 26.625Z" fill="#1F62FE"/>
<path d="M34.6004 34.5312H33.7754C33.3629 34.5312 33.0879 34.2563 33.0879 33.8438C33.0879 33.4312 33.3629 33.1562 33.7754 33.1562H34.6004C35.0129 33.1562 35.2879 33.4312 35.2879 33.8438C35.2879 34.2563 35.0129 34.5312 34.6004 34.5312ZM30.4754 34.5312H29.6504C29.2379 34.5312 28.9629 34.2563 28.9629 33.8438C28.9629 33.4312 29.2379 33.1562 29.6504 33.1562H30.4754C30.8879 33.1562 31.1629 33.4312 31.1629 33.8438C31.1629 34.2563 30.8879 34.5312 30.4754 34.5312ZM26.3504 34.5312H25.5254C25.1129 34.5312 24.8379 34.2563 24.8379 33.8438C24.8379 33.4312 25.1129 33.1562 25.5254 33.1562H26.3504C26.7629 33.1562 27.0379 33.4312 27.0379 33.8438C27.0379 34.2563 26.7629 34.5312 26.3504 34.5312ZM22.2254 34.5312H21.4004C20.9879 34.5312 20.7129 34.2563 20.7129 33.8438C20.7129 33.4312 20.9879 33.1562 21.4004 33.1562H22.2254C22.6379 33.1562 22.9129 33.4312 22.9129 33.8438C22.9129 34.2563 22.6379 34.5312 22.2254 34.5312Z" fill="#1F62FE"/>
<path d="M14.3186 26.625H9.9873C9.5748 26.625 9.2998 26.35 9.2998 25.9375C9.2998 25.525 9.5748 25.25 9.9873 25.25H14.3186C14.7311 25.25 15.0061 25.525 15.0061 25.9375C15.0061 26.35 14.7311 26.625 14.3186 26.625Z" fill="#1F62FE"/>
<path d="M14.3186 34.5312H9.9873C9.5748 34.5312 9.2998 34.2563 9.2998 33.8438C9.2998 33.4312 9.5748 33.1562 9.9873 33.1562H14.3186C14.7311 33.1562 15.0061 33.4312 15.0061 33.8438C15.0061 34.2563 14.7311 34.5312 14.3186 34.5312Z" fill="#1F62FE"/>
<path d="M16.6562 19.0625H13.7687C13.3562 19.0625 13.0812 18.7875 13.0812 18.375V16.8625H11.5C11.0875 16.8625 10.8125 16.5875 10.8125 16.175V13.2875C10.8125 12.875 11.0875 12.6 11.5 12.6H13.0812V11.0187C13.0812 10.6062 13.3562 10.3312 13.7687 10.3312H16.6562C17.0687 10.3312 17.3438 10.6062 17.3438 11.0187V12.6H18.925C19.3375 12.6 19.6125 12.875 19.6125 13.2875V16.175C19.6125 16.5875 19.3375 16.8625 18.925 16.8625H17.3438V18.375C17.3438 18.7875 17.0687 19.0625 16.6562 19.0625ZM14.525 17.6875H16.0375V16.175C16.0375 15.7625 16.3125 15.4875 16.725 15.4875H18.3062V13.975H16.725C16.3125 13.975 16.0375 13.7 16.0375 13.2875V11.7062H14.525V13.2875C14.525 13.7 14.25 13.975 13.8375 13.975H12.2563V15.4875H13.8375C14.25 15.4875 14.525 15.7625 14.525 16.175V17.6875Z" fill="#1F62FE"/>
</svg>
