<svg width="44" height="44" viewBox="0 0 44 44" fill="none" xmlns="http://www.w3.org/2000/svg">
<path d="M21.7043 18.5075C21.0787 19.8 19.6212 20.6112 18.0331 20.2469C16.8712 19.9787 15.9224 19.03 15.6543 17.8681C15.3312 16.4587 15.9362 15.1594 16.9743 14.4512C18.1293 13.6606 18.7962 12.3337 18.7962 10.9312V3.20374H24.5987V10.9312C24.5987 12.3269 25.2587 13.6606 26.4137 14.4512C27.4587 15.1594 28.0637 16.4656 27.7337 17.875C27.4656 19.0369 26.5168 19.9856 25.3481 20.2469C23.7737 20.6112 22.3162 19.8 21.7043 18.5075Z" stroke="#1F62FE" stroke-width="2" stroke-miterlimit="10" stroke-linecap="round" stroke-linejoin="round"/>
<path d="M25.6575 23.7531C26.8262 24.0213 27.7681 24.9631 28.0431 26.125C28.3731 27.5344 27.7681 28.8406 26.7231 29.5488C25.5681 30.3394 24.9081 31.6663 24.9081 33.0688V40.8031H19.1056V33.0688C19.1056 31.6731 18.4456 30.3394 17.2837 29.5488C16.2456 28.8406 15.6406 27.5413 15.9637 26.1319C16.2318 24.97 17.1737 24.0213 18.3425 23.7531C19.9306 23.3888 21.3881 24.2 22.0137 25.4925C22.6187 24.2 24.0693 23.3888 25.6575 23.7531Z" stroke="#1F62FE" stroke-width="2" stroke-miterlimit="10" stroke-linecap="round" stroke-linejoin="round"/>
<path d="M26.62 19.635C27.1975 20.3156 27.5275 21.1338 27.5275 22C27.5275 22.8113 27.2387 23.5675 26.73 24.2206" stroke="#1F62FE" stroke-width="2" stroke-miterlimit="10" stroke-linecap="round" stroke-linejoin="round"/>
<path d="M16.9125 24.5231C16.2525 23.8012 15.8743 22.9419 15.8743 22C15.8743 21.12 16.2112 20.3087 16.7818 19.6281" stroke="#1F62FE" stroke-width="2" stroke-miterlimit="10" stroke-linecap="round" stroke-linejoin="round"/>
<path d="M12.0725 22.0756H7.09497" stroke="#1F62FE" stroke-width="2" stroke-miterlimit="10" stroke-linecap="round" stroke-linejoin="round"/>
<path d="M12.0725 17.5106L8.55249 13.9906" stroke="#1F62FE" stroke-width="2" stroke-miterlimit="10" stroke-linecap="round" stroke-linejoin="round"/>
<path d="M12.0725 26.6406L8.55249 30.1538" stroke="#1F62FE" stroke-width="2" stroke-miterlimit="10" stroke-linecap="round" stroke-linejoin="round"/>
<path d="M31.9275 22.0756H36.905" stroke="#1F62FE" stroke-width="2" stroke-miterlimit="10" stroke-linecap="round" stroke-linejoin="round"/>
<path d="M31.9275 17.5106L35.4475 13.9906" stroke="#1F62FE" stroke-width="2" stroke-miterlimit="10" stroke-linecap="round" stroke-linejoin="round"/>
<path d="M31.9275 26.6406L35.4475 30.1538" stroke="#1F62FE" stroke-width="2" stroke-miterlimit="10" stroke-linecap="round" stroke-linejoin="round"/>
</svg>
