<svg width="44" height="44" viewBox="0 0 44 44" fill="none" xmlns="http://www.w3.org/2000/svg">
<path d="M30.5387 32.835C35.255 32.065 34.6362 28.5588 34.6362 28.5588C40.2669 30.58 38.6375 24.2 38.6375 24.2C41.5387 22.2613 42.7969 19.7244 41.2225 16.0325C39.4281 11.825 35.3375 12.6294 35.3375 12.6294C33.3162 6.77878 28.2425 8.58003 28.2425 8.58003C28.2425 8.58003 27.2869 5.26628 23.5537 5.0394C19.47 4.78503 17.9437 7.87878 17.9437 7.87878C16.8231 5.50003 14.1144 5.23878 12.1687 6.13253C9.8725 7.1844 9.7625 9.50128 9.7625 9.50128C9.7625 9.50128 7.3975 8.63503 5.54812 10.4775C3.69875 12.3269 5.03937 14.8775 5.03937 14.8775C2.46812 16.0669 0.89375 19.9169 3.21062 22.6669C5.10125 24.9082 8.36687 24.2482 8.36687 24.2482C8.13312 28.3732 13.7775 28.0432 13.7775 28.0432C13.8463 33.2269 20.7762 31.0132 20.7762 31.0132C20.7762 31.0132 24.42 36.85 30.5387 32.835Z" stroke="#1F62FE" stroke-width="2" stroke-miterlimit="10" stroke-linecap="round" stroke-linejoin="round"/>
<path d="M8.38062 24.2481C8.38062 24.2481 12.2444 23.8838 12.6706 21.3744" stroke="#1F62FE" stroke-width="2" stroke-miterlimit="10" stroke-linecap="round" stroke-linejoin="round"/>
<path d="M35.3375 12.6294C35.3375 12.6294 32.7869 13.1588 31.7281 14.96" stroke="#1F62FE" stroke-width="2" stroke-miterlimit="10" stroke-linecap="round" stroke-linejoin="round"/>
<path d="M21.5669 26.9775C21.5669 26.9775 21.8144 29.7757 24.42 31.13" stroke="#1F62FE" stroke-width="2" stroke-miterlimit="10" stroke-linecap="round" stroke-linejoin="round"/>
<path d="M34.6362 28.5588C34.6362 28.5588 30.2087 24.6469 34.6362 19.0094" stroke="#1F62FE" stroke-width="2" stroke-miterlimit="10" stroke-linecap="round" stroke-linejoin="round"/>
<path d="M29.3081 21.3744C29.3081 21.3744 32.0787 21.3744 32.6975 24.6056" stroke="#1F62FE" stroke-width="2" stroke-miterlimit="10" stroke-linecap="round" stroke-linejoin="round"/>
<path d="M25.7881 24.6126C25.7881 24.6126 27.5069 20.5082 24.0694 18.5763C20.6387 16.6376 21.56 13.8051 21.56 13.8051" stroke="#1F62FE" stroke-width="2" stroke-miterlimit="10" stroke-linecap="round" stroke-linejoin="round"/>
<path d="M17.2081 19.0094C17.2081 19.0094 18.0813 15.9225 22.99 17.82" stroke="#1F62FE" stroke-width="2" stroke-miterlimit="10" stroke-linecap="round" stroke-linejoin="round"/>
<path d="M17.9506 7.87878C17.9506 7.87878 17.3456 9.74878 18.0949 11.3094" stroke="#1F62FE" stroke-width="2" stroke-miterlimit="10" stroke-linecap="round" stroke-linejoin="round"/>
<path d="M25.9325 10.2919C25.9325 10.2919 27.2869 12.6363 26.6887 14.9669" stroke="#1F62FE" stroke-width="2" stroke-miterlimit="10" stroke-linecap="round" stroke-linejoin="round"/>
<path d="M5.04626 14.8776C5.04626 14.8776 7.42501 13.7913 9.57001 15.2419C11.715 16.6926 13.8256 15.5719 13.8256 15.5719" stroke="#1F62FE" stroke-width="2" stroke-miterlimit="10" stroke-linecap="round" stroke-linejoin="round"/>
<path d="M9.56315 15.2419C9.56315 15.2419 11.4125 17.7169 8.37378 19.4975" stroke="#1F62FE" stroke-width="2" stroke-miterlimit="10" stroke-linecap="round" stroke-linejoin="round"/>
<path d="M17.2081 26.2694C17.2081 26.2694 16.9881 24.4201 18.9681 22.9901" stroke="#1F62FE" stroke-width="2" stroke-miterlimit="10" stroke-linecap="round" stroke-linejoin="round"/>
<path d="M27.6168 29.6382C27.6168 29.6382 30.5387 29.8994 30.5387 32.8351" stroke="#1F62FE" stroke-width="2" stroke-miterlimit="10" stroke-linecap="round" stroke-linejoin="round"/>
<path d="M37.4207 16.2594C37.4207 16.2594 38.8369 17.05 38.7269 19.4906" stroke="#1F62FE" stroke-width="2" stroke-miterlimit="10" stroke-linecap="round" stroke-linejoin="round"/>
<path d="M37.4206 29.0538C37.4206 29.0538 41.8549 38.8438 37.4206 38.9744C32.6012 39.1188 38.0806 32.3194 27.6168 34.1138" stroke="#1F62FE" stroke-width="2" stroke-miterlimit="10" stroke-linecap="round" stroke-linejoin="round"/>
<path d="M22 32.835C22 32.835 21.4225 41.2844 35.3375 38.0394" stroke="#1F62FE" stroke-width="2" stroke-miterlimit="10" stroke-linecap="round" stroke-linejoin="round"/>
<path d="M34.6362 35.9288C34.6362 35.9288 31.1781 35.7088 28.6687 36.4925" stroke="#1F62FE" stroke-width="2" stroke-miterlimit="10" stroke-linecap="round" stroke-linejoin="round"/>
</svg>
