<svg width="44" height="44" viewBox="0 0 44 44" fill="none" xmlns="http://www.w3.org/2000/svg">
<path d="M22 28.5312C21.8625 28.5312 15.6063 27.9813 14.025 21.6562C12.7188 20.7625 11.0688 17.6687 11.275 15.8813C11.275 15.1938 11.6875 14.6438 12.3063 14.3687C12.0313 11.6875 12.1 8.45625 14.2313 6.11875C15.8125 4.4 18.4938 3.4375 22 3.4375H27.3625C27.775 3.4375 28.05 3.7125 28.05 4.125C28.05 4.5375 27.775 4.8125 27.3625 4.8125H22C18.9063 4.8125 16.6375 5.56875 15.2625 7.15C13.3375 9.28125 13.475 12.375 13.75 14.9188C13.75 15.125 13.75 15.2625 13.6125 15.4688C13.475 15.6062 13.3375 15.675 13.1313 15.7437C12.7188 15.7437 12.65 15.95 12.65 16.1562C12.375 17.5312 14.3 20.4188 14.85 20.6938C15.0563 20.7625 15.2625 20.9688 15.3313 21.175C16.0188 24.475 18.7688 26.8813 22.1375 27.2938C22.55 27.2938 22.825 27.6375 22.825 27.9813C22.825 28.325 22.3438 28.6 22 28.5312Z" fill="#1F62FE"/>
<path d="M22 28.5313C21.5875 28.5313 21.3125 28.2563 21.3125 27.8438C21.3125 27.4313 21.5875 27.1563 22 27.1563C22.2063 27.1563 27.5687 26.6063 28.7375 21.0375C28.8062 20.7625 28.9437 20.625 29.2188 20.4875C29.7688 20.2125 31.625 17.325 31.4188 15.95C31.4188 15.7438 31.35 15.6063 30.9375 15.5375C30.7312 15.5375 30.5937 15.4688 30.4562 15.2625C30.3187 15.125 30.25 14.9188 30.3187 14.7125V14.5063C30.5937 12.1 31.0062 8.52501 27.5687 7.08126C27.225 6.94376 27.0187 6.53126 27.225 6.18751C27.3625 5.84376 27.775 5.63751 28.1188 5.84376C32.45 7.56251 32.1062 11.7563 31.8312 14.3C32.45 14.575 32.8625 15.125 32.9313 15.8125C33.1375 17.5313 31.4188 20.6938 30.1813 21.5875C28.6 27.8438 22.3438 28.4625 22.275 28.4625L22 28.5313Z" fill="#1F62FE"/>
<path d="M16.7063 12.4438C16.4313 12.4438 16.1563 12.2375 16.0875 12.0313C15.95 11.6875 16.1563 11.275 16.5 11.1375C17.3938 10.7938 17.9438 9.21252 18.0813 8.66252C18.15 8.45627 18.2875 8.25002 18.4938 8.18127C18.7 8.11252 18.975 8.11252 19.1125 8.25002C19.1813 8.25002 23.1688 11.1375 27.4313 11.1375C27.8438 11.1375 28.1188 11.4125 28.1188 11.825C28.1188 12.2375 27.8438 12.5125 27.4313 12.5125C23.8563 12.5125 20.5563 10.7938 19.1125 9.90002C18.7688 10.7938 18.0813 12.0313 16.9813 12.4438C16.8438 12.4438 16.775 12.5125 16.7063 12.4438Z" fill="#1F62FE"/>
<path d="M22 41.525C21.725 41.525 21.45 41.3875 21.3813 41.1125L17.05 30.4562C15.4 31.2812 11.2063 33.3437 8.86877 34.5812C5.84377 36.3687 6.18752 40.7 6.18752 40.7687C6.25627 41.1812 5.91252 41.4562 5.56877 41.525C5.15627 41.5937 4.88127 41.25 4.81252 40.9062C4.81252 40.7 4.33127 35.6812 8.18127 33.4125C11.2063 31.8312 17.05 28.9437 17.05 28.9437C17.3938 28.8062 17.8063 28.9437 17.9438 29.2875C17.9438 29.2875 17.9438 29.2875 17.9438 29.3562L22.6875 40.5625C22.825 40.9062 22.6875 41.3187 22.3438 41.4562C22.2063 41.525 22.1375 41.525 22 41.525Z" fill="#1F62FE"/>
<path d="M22 41.525C21.9312 41.525 21.7937 41.525 21.725 41.4563C21.3812 41.3188 21.175 40.9063 21.3812 40.5625L25.9875 29.2188C26.125 28.875 26.5375 28.6688 26.8812 28.8063H26.95C27.0187 28.8063 32.8625 31.6938 35.8187 33.275C39.6687 35.6125 39.2562 40.5625 39.2562 40.7688C39.1875 41.1813 38.9125 41.4563 38.5 41.3875C38.0875 41.3188 37.8125 41.0438 37.8812 40.6313C37.8812 40.5625 38.225 36.3 35.2 34.5125C32.8625 33.275 28.6687 31.2125 27.0875 30.3875L22.6875 41.0438C22.55 41.3188 22.275 41.525 22 41.525Z" fill="#1F62FE"/>
<path d="M29.3563 36.6438C29.0813 36.6438 28.8063 36.5063 28.7375 36.2313L25.9875 29.7688C25.85 29.425 25.9875 29.0125 26.3313 28.875C26.675 28.7375 27.0875 28.875 27.225 29.2188L29.975 35.6813C30.1125 36.025 29.975 36.4375 29.6313 36.575C29.5625 36.6438 29.4938 36.6438 29.3563 36.6438Z" fill="#1F62FE"/>
<path d="M32.4501 41.4562H31.7626C31.3501 41.4562 31.0751 41.1812 31.0751 40.7687C31.0751 40.3562 31.3501 40.0812 31.7626 40.0812V39.05C31.7626 37.7437 30.6626 36.6437 29.3563 36.6437C28.0501 36.6437 26.9501 37.7437 26.9501 39.05V40.0812C27.3626 40.0812 27.6376 40.3562 27.6376 40.7687C27.6376 41.1812 27.3626 41.4562 26.9501 41.4562H26.2626C25.8501 41.4562 25.5751 41.1812 25.5751 40.7687V39.05C25.5751 36.9875 27.2251 35.2687 29.3563 35.2687C31.4876 35.2687 33.1376 36.9187 33.1376 39.05V40.7687C33.1376 41.1812 32.7938 41.4562 32.4501 41.4562Z" fill="#1F62FE"/>
<path d="M14.6438 38.3625C14.575 38.3625 14.5063 38.3625 14.4375 38.3625C14.0938 38.225 13.8875 37.8812 14.025 37.4687L16.775 29.2875C16.9125 28.9437 17.2563 28.7375 17.6688 28.875C18.0125 29.0125 18.2188 29.3562 18.0813 29.7687L15.3313 37.95C15.1938 38.225 14.9188 38.3625 14.6438 38.3625Z" fill="#1F62FE"/>
<path d="M14.6437 41.525C13.4062 41.525 12.375 40.4937 12.375 39.2562C12.375 38.0187 13.4062 36.9875 14.6437 36.9875C15.8812 36.9875 16.9125 38.0187 16.9125 39.2562C16.9125 40.4937 15.8812 41.525 14.6437 41.525ZM14.6437 38.3625C14.1625 38.3625 13.75 38.775 13.75 39.2562C13.75 39.7375 14.1625 40.15 14.6437 40.15C15.125 40.15 15.5375 39.7375 15.5375 39.2562C15.4688 38.775 15.125 38.3625 14.6437 38.3625Z" fill="#1F62FE"/>
<path d="M24.1313 35.2687H19.7313C19.3188 35.2687 19.0438 34.9937 19.0438 34.5812C19.0438 34.1687 19.3188 33.8937 19.7313 33.8937H24.1313C24.5438 33.8937 24.8188 34.1687 24.8188 34.5812C24.8188 34.9937 24.4751 35.2687 24.1313 35.2687Z" fill="#1F62FE"/>
<path d="M19.25 18.15C18.7 18.15 18.2188 17.6687 18.2188 17.1187C18.2188 16.8437 18.3562 16.5687 18.5625 16.3625C18.975 15.95 19.5938 15.95 20.0063 16.3625C20.2125 16.5687 20.2812 16.8437 20.2812 17.1187C20.2812 17.3937 20.1437 17.6687 19.9375 17.875C19.8 18.0812 19.525 18.15 19.25 18.15Z" fill="#1F62FE"/>
<path d="M24.5437 18.15C24.475 18.15 24.4062 18.15 24.3375 18.15C24.1312 18.0813 23.925 18.0125 23.7875 17.875C23.5125 17.6 23.4437 17.2563 23.5125 16.9125C23.5125 16.8438 23.5125 16.775 23.5812 16.7063C23.65 16.6375 23.65 16.5688 23.65 16.5C23.7187 16.4313 23.7187 16.3625 23.7875 16.3625C23.8562 16.2938 23.8562 16.2938 23.925 16.225L24.1312 16.1563C24.2 16.1563 24.2687 16.0875 24.3375 16.0875C24.6812 16.0188 25.025 16.1563 25.2312 16.3625C25.3 16.4313 25.3 16.4313 25.3687 16.5C25.4375 16.5688 25.4375 16.6375 25.4375 16.7063C25.6437 17.2563 25.4375 17.8063 24.8875 18.0813C24.8187 18.15 24.6812 18.2188 24.5437 18.15Z" fill="#1F62FE"/>
<path d="M21.8625 22.9625C20.7625 22.8938 19.7313 22.4813 18.9063 21.7938C18.6313 21.5188 18.5625 21.1063 18.8375 20.8313C19.0438 20.5563 19.4563 20.4875 19.7313 20.6938C21.2438 21.8625 22.55 21.8625 23.7188 20.7625C23.9938 20.4875 24.4063 20.4875 24.6813 20.7625C24.9563 21.0375 24.9563 21.45 24.6813 21.725C23.925 22.55 22.9625 22.9625 21.8625 22.9625Z" fill="#1F62FE"/>
</svg>
