<svg width="44" height="44" viewBox="0 0 44 44" fill="none" xmlns="http://www.w3.org/2000/svg">
<path d="M28.9026 31.6663C32.4569 29.7 35.3651 24.3375 36.2244 17.4556C37.2969 8.91002 31.0338 1.79439 22.8594 1.88377C12.7601 1.99377 9.11631 6.88189 7.99568 11.7356C6.95756 16.225 8.33943 20.955 11.4401 24.365C14.4994 27.7338 16.8438 28.8338 17.9988 37.3794C18.8169 43.4431 27.3007 43.4431 29.5488 38.7131C31.6801 34.2238 27.5551 29.7344 27.5551 29.7344" stroke="#1F62FE" stroke-width="2" stroke-miterlimit="10" stroke-linecap="round" stroke-linejoin="round"/>
<path d="M21.3469 32.89C21.3469 24.2757 13.7706 22.1444 13.7706 17.0157C13.7706 15.0494 14.3825 13.2207 15.4275 11.715C18.81 6.85442 27.8506 8.16754 29.3219 13.6263C29.7963 15.3932 29.7138 18.3907 27.2181 20.0888" stroke="#1F62FE" stroke-width="2" stroke-miterlimit="10" stroke-linecap="round" stroke-linejoin="round"/>
<path d="M20.7557 13.1175C20.7557 13.1175 24.3307 14.5406 22.392 16.8231C19.2364 20.5287 23.9389 22.2819 27.2182 20.1025" stroke="#1F62FE" stroke-width="2" stroke-miterlimit="10" stroke-linecap="round" stroke-linejoin="round"/>
<path d="M20.1094 22.2613C20.1094 22.2613 22.66 26.9913 28.4831 24.8875" stroke="#1F62FE" stroke-width="2" stroke-miterlimit="10" stroke-linecap="round" stroke-linejoin="round"/>
</svg>
