<svg width="45" height="45" viewBox="0 0 45 45" fill="none" xmlns="http://www.w3.org/2000/svg">
<path d="M31.1621 36.25C36.288 36.25 40.4434 32.0946 40.4434 26.9688C40.4434 21.8429 36.288 17.6875 31.1621 17.6875C26.0362 17.6875 21.8809 21.8429 21.8809 26.9688C21.8809 32.0946 26.0362 36.25 31.1621 36.25Z" fill="#C2D6E7"/>
<path d="M29.9242 18.7188H26.968C26.5555 18.7188 26.2805 18.4438 26.2805 18.0313V16.45H24.6992C24.2867 16.45 24.0117 16.175 24.0117 15.7625V12.8063C24.0117 12.3938 24.2867 12.1188 24.6992 12.1188H26.2805V10.5375C26.2805 10.125 26.5555 9.85004 26.968 9.85004H29.9242C30.3367 9.85004 30.6117 10.125 30.6117 10.5375V12.1188H32.193C32.6055 12.1188 32.8805 12.3938 32.8805 12.8063V15.7625C32.8805 16.175 32.6055 16.45 32.193 16.45H30.6117V18.0313C30.6117 18.4438 30.268 18.7188 29.9242 18.7188ZM27.6555 17.3438H29.2367V15.7625C29.2367 15.35 29.5117 15.075 29.9242 15.075H31.5055V13.4938H29.9242C29.5117 13.4938 29.2367 13.2188 29.2367 12.8063V11.225H27.6555V12.8063C27.6555 13.2188 27.3805 13.4938 26.968 13.4938H25.3867V15.075H26.968C27.3805 15.075 27.6555 15.35 27.6555 15.7625V17.3438Z" fill="#1F62FE"/>
<path d="M30.3372 40.5813C30.1997 40.5813 30.0622 40.5813 29.9934 40.5813C16.9997 38.725 6.75592 28.4813 4.89967 15.4875C4.69342 14.1813 5.51842 12.9438 6.82467 12.6L11.7747 11.2938C13.0122 10.95 14.3184 11.5688 14.8684 12.8063L15.9684 15.35C17.2059 18.1688 16.5872 21.5375 14.3184 23.6688C16.2434 26.6938 18.7872 29.3063 21.8122 31.1625C23.9434 28.8938 27.3122 28.2063 30.1309 29.5125L32.6747 30.6125C33.8434 31.0938 34.5309 32.4 34.1872 33.6375L32.8809 38.5875C32.6059 39.7563 31.5059 40.5813 30.3372 40.5813ZM12.4622 12.6C12.3247 12.6 12.2559 12.6 12.1184 12.6688L7.16842 13.975C6.54967 14.1125 6.13717 14.7313 6.20592 15.35C7.99342 27.725 17.6872 37.4188 30.0622 39.275C30.6809 39.3438 31.2997 38.9313 31.4372 38.3125L32.7434 33.3625C32.8809 32.7438 32.6059 32.125 32.0559 31.9188L29.5809 30.75C27.1059 29.65 24.1497 30.3375 22.4997 32.4688C22.2934 32.7438 21.8809 32.8125 21.6059 32.6063C18.0309 30.475 15.0059 27.5188 12.8747 23.875C12.6684 23.6 12.7372 23.1875 13.0122 22.9813C15.1434 21.2625 15.8309 18.375 14.7309 15.9L13.6309 13.3563C13.4247 12.875 12.9434 12.6 12.4622 12.6Z" fill="#1F62FE"/>
<path d="M26.3496 25.525C26.2809 25.525 26.1434 25.525 26.0746 25.4563C25.7996 25.3188 25.6621 25.1125 25.6621 24.8375V22.7063H21.1246C20.2309 22.7063 19.4746 21.95 19.4746 21.0563V7.44376C19.4746 6.55001 20.2309 5.79376 21.1246 5.79376H35.6309C36.5246 5.79376 37.2809 6.55001 37.2809 7.44376V20.9875C37.2809 21.8813 36.5246 22.6375 35.6309 22.6375H30.0621L26.7621 25.3188C26.6934 25.4563 26.5559 25.525 26.3496 25.525ZM21.1246 7.16876C20.9871 7.16876 20.8496 7.30626 20.8496 7.44376V20.9875C20.8496 21.125 20.9871 21.2625 21.1246 21.2625H26.3496C26.7621 21.2625 27.0371 21.5375 27.0371 21.95V23.325L29.3746 21.4C29.5121 21.3313 29.6496 21.2625 29.7871 21.2625H35.6309C35.7684 21.2625 35.9059 21.125 35.9059 20.9875V7.44376C35.9059 7.30626 35.7684 7.16876 35.6309 7.16876H21.1246Z" fill="#1F62FE"/>
</svg>
