<svg width="36" height="36" viewBox="0 0 36 36" fill="none" xmlns="http://www.w3.org/2000/svg">
<path d="M33.7162 19.6031C33.7162 19.6031 26.6793 26.55 17.9999 26.55C9.32057 26.55 2.28369 19.6031 2.28369 19.6031C2.28369 19.6031 9.32057 12.6506 17.9999 12.6506C26.6793 12.6506 33.7162 19.6031 33.7162 19.6031Z" stroke="#1F62FE" stroke-width="2" stroke-miterlimit="10" stroke-linecap="round" stroke-linejoin="round"/>
<path d="M24.6768 13.9388C25.3968 15.5869 25.813 17.5275 25.813 19.5975C25.813 21.6732 25.3968 23.6082 24.6768 25.2563" stroke="#1F62FE" stroke-width="2" stroke-miterlimit="10" stroke-linecap="round" stroke-linejoin="round"/>
<path d="M11.323 25.2619C10.603 23.6138 10.1868 21.6788 10.1868 19.6031C10.1868 17.5331 10.603 15.5925 11.323 13.9444" stroke="#1F62FE" stroke-width="2" stroke-miterlimit="10" stroke-linecap="round" stroke-linejoin="round"/>
<path d="M17.9999 23.2032C19.9881 23.2032 21.5999 21.5914 21.5999 19.6032C21.5999 17.6149 19.9881 16.0032 17.9999 16.0032C16.0117 16.0032 14.3999 17.6149 14.3999 19.6032C14.3999 21.5914 16.0117 23.2032 17.9999 23.2032Z" stroke="#1F62FE" stroke-width="2" stroke-miterlimit="10" stroke-linecap="round" stroke-linejoin="round"/>
<path d="M16.3743 19.6032C16.3743 18.7088 17.0999 17.9775 17.9999 17.9775" stroke="#1F62FE" stroke-width="2" stroke-miterlimit="10" stroke-linecap="round" stroke-linejoin="round"/>
<path d="M18 12.6506V7.30127" stroke="#1F62FE" stroke-width="2" stroke-miterlimit="10" stroke-linecap="round" stroke-linejoin="round"/>
<path d="M25.5319 8.41504L22.6406 13.2919" stroke="#1F62FE" stroke-width="2" stroke-miterlimit="10" stroke-linecap="round" stroke-linejoin="round"/>
<path d="M13.3649 13.2919L10.4736 8.41504" stroke="#1F62FE" stroke-width="2" stroke-miterlimit="10" stroke-linecap="round" stroke-linejoin="round"/>
<path d="M2.44678 16.4756C2.44678 16.4756 5.04553 13.4494 10.3274 12.0881" stroke="#1F62FE" stroke-width="2" stroke-miterlimit="10" stroke-linecap="round" stroke-linejoin="round"/>
<path d="M33.5531 16.4756C33.5531 16.4756 30.9544 13.4494 25.6725 12.0881" stroke="#1F62FE" stroke-width="2" stroke-miterlimit="10" stroke-linecap="round" stroke-linejoin="round"/>
<path d="M2.28369 22.7475C2.28369 22.7475 7.09869 28.6988 17.9999 28.6988C29.3174 28.6988 33.7162 22.3313 33.7162 22.3313" stroke="#1F62FE" stroke-width="2" stroke-miterlimit="10" stroke-linecap="round" stroke-linejoin="round"/>
</svg>
