<svg width="44" height="44" viewBox="0 0 44 44" fill="none" xmlns="http://www.w3.org/2000/svg">
<path d="M24.3787 14.2863H37.1594C38.6375 14.2863 39.8269 15.4894 39.8269 16.9538V25.4581V38.1288C39.8269 39.5931 38.6375 40.7963 37.1594 40.7963H6.105C4.62688 40.7963 3.4375 39.5931 3.4375 38.1288V23.3819V16.9538C3.4375 15.4894 4.62688 14.2863 6.105 14.2863H21.3263" stroke="#1F62FE" stroke-width="2" stroke-miterlimit="10" stroke-linecap="round" stroke-linejoin="round"/>
<path d="M23.4094 24.8669C23.4644 24.8669 23.5194 24.8669 23.5675 24.8669C24.5644 24.8669 25.5613 24.7088 26.5169 24.3925L28.9438 23.595C31.0063 22.9075 33.2338 22.9625 35.2688 23.7394L39.82 25.465" stroke="#1F62FE" stroke-width="2" stroke-miterlimit="10" stroke-linecap="round" stroke-linejoin="round"/>
<path d="M3.4444 23.3819L6.42127 24.3513C8.23627 24.9494 10.1819 24.9838 12.0106 24.4475L13.9013 23.8975C15.4825 23.4438 17.1463 23.4025 18.7275 23.7738" stroke="#1F62FE" stroke-width="2" stroke-miterlimit="10" stroke-linecap="round" stroke-linejoin="round"/>
<path d="M27.1425 6.86127L29.0125 3.1969L27.8781 4.40002C21.8419 10.7525 18.48 19.1744 18.4731 27.9331C18.3563 29.8238 17.9575 31.6731 17.6413 33.5363C17.6206 33.6463 17.6138 33.7494 17.6138 33.8525C17.6138 35.6744 19.0988 37.1594 20.9206 37.1594C22.7425 37.1594 24.2275 35.6744 24.2275 33.8525C24.2275 33.7081 24.2069 33.5569 24.1725 33.3988C23.6981 31.3156 23.4438 29.1844 23.43 27.0463L23.4025 22.6394C23.3681 17.1531 24.6538 11.7425 27.1425 6.86127Z" stroke="#1F62FE" stroke-width="2" stroke-miterlimit="10" stroke-linecap="round" stroke-linejoin="round"/>
<path d="M9.15747 14.2863C11.5912 3.69876 18.095 3.30688 18.095 3.30688C18.095 3.30688 13.0762 6.67564 12.6843 14.2863" stroke="#1F62FE" stroke-width="2" stroke-miterlimit="10" stroke-linecap="round" stroke-linejoin="round"/>
<path d="M31.6182 14.2863C34.0519 3.69876 40.5557 3.30688 40.5557 3.30688C40.5557 3.30688 35.5369 6.67564 35.145 14.2863" stroke="#1F62FE" stroke-width="2" stroke-miterlimit="10" stroke-linecap="round" stroke-linejoin="round"/>
<path d="M9.15747 33.1031C10.4864 33.1031 11.5637 32.0258 11.5637 30.6969C11.5637 29.368 10.4864 28.2906 9.15747 28.2906C7.82854 28.2906 6.75122 29.368 6.75122 30.6969C6.75122 32.0258 7.82854 33.1031 9.15747 33.1031Z" stroke="#1F62FE" stroke-width="2" stroke-miterlimit="10" stroke-linecap="round" stroke-linejoin="round"/>
<path d="M33.6807 37.9088C35.0096 37.9088 36.0869 36.8314 36.0869 35.5025C36.0869 34.1736 35.0096 33.0963 33.6807 33.0963C32.3517 33.0963 31.2744 34.1736 31.2744 35.5025C31.2744 36.8314 32.3517 37.9088 33.6807 37.9088Z" stroke="#1F62FE" stroke-width="2" stroke-miterlimit="10" stroke-linecap="round" stroke-linejoin="round"/>
<path d="M29.9132 31.0269C30.6688 31.0269 31.2813 30.4144 31.2813 29.6588C31.2813 28.9032 30.6688 28.2906 29.9132 28.2906C29.1576 28.2906 28.545 28.9032 28.545 29.6588C28.545 30.4144 29.1576 31.0269 29.9132 31.0269Z" stroke="#1F62FE" stroke-width="2" stroke-miterlimit="10" stroke-linecap="round" stroke-linejoin="round"/>
</svg>
