<svg width="44" height="44" viewBox="0 0 44 44" fill="none" xmlns="http://www.w3.org/2000/svg">
<path d="M27.8437 39.9437C24.6125 39.9437 13.2687 35.475 10.45 27.3625C7.97498 21.1062 12.7187 15.4687 15.8125 13.8875C16.1562 13.6812 16.5687 13.8187 16.775 14.1625C16.9812 14.5062 16.8437 14.9187 16.5 15.125C13.8187 16.5 9.62499 21.5187 11.7562 26.95C14.3687 34.375 24.9562 38.6375 27.8437 38.6375C29.4937 38.6375 30.6625 38.2937 31.4187 37.4687C32.3812 36.4375 32.8625 34.65 32.725 32.175C32.3812 22.1375 28.4625 17.3937 28.3937 17.325C28.1187 17.05 28.1875 16.5687 28.4625 16.3625C28.7375 16.0875 29.2187 16.1562 29.425 16.4312C29.5625 16.6375 33.6875 21.5875 34.1 32.1062C34.2375 35.0625 33.6187 37.0562 32.3812 38.4312C31.4187 39.3937 29.9062 39.9437 27.8437 39.9437Z" fill="#1F62FE"/>
<path d="M27.0188 23.3063C26.8125 23.3063 26.675 23.2375 26.5375 23.1C26.4688 23.0313 24.2 20.6938 24.6813 17.7375C25.0938 15.5375 26.95 13.6125 30.1813 12.1688C30.525 12.0313 30.9375 12.1688 31.075 12.5125C31.2125 12.8563 31.075 13.2688 30.7313 13.4063C27.9125 14.7125 26.3313 16.225 26.0563 18.0125C25.6438 20.2125 27.5 22.1375 27.5 22.1375C27.775 22.4125 27.775 22.825 27.5 23.1C27.4313 23.2375 27.225 23.3063 27.0188 23.3063Z" fill="#1F62FE"/>
<path d="M15.95 20.6938C15.6062 20.6938 15.2625 20.4188 15.2625 20.075C15.2625 19.8688 14.9187 14.9188 16.2937 11.4125C16.775 10.45 17.05 9.48751 17.2562 8.45626C17.05 7.97501 16.7062 7.49376 16.3625 7.01251C16.1562 6.73751 16.1562 6.32501 16.4312 6.11876L17.8062 4.81251C17.9437 4.67501 18.15 4.60626 18.2875 4.60626C18.4937 4.60626 18.6312 4.67501 18.7687 4.81251L19.9375 6.18751C22.3437 5.50001 26.675 5.50001 28.5312 10.1063C28.6687 10.45 28.5312 10.8625 28.1875 11C27.8437 11.1375 27.4312 11 27.2937 10.5875C25.2312 5.70626 20.2125 7.56251 20.0062 7.56251C19.7312 7.63126 19.4562 7.56251 19.25 7.35626L18.2187 6.18751L17.8062 6.60001C18.2187 7.08126 18.4937 7.70001 18.5625 8.38751C18.425 9.62501 18.0125 10.7938 17.5312 11.8938C16.2937 15.125 16.6375 19.9375 16.6375 20.0063C16.6375 20.35 16.3625 20.6938 15.95 20.6938C16.0187 20.6938 16.0187 20.6938 15.95 20.6938Z" fill="#1F62FE"/>
<path d="M15.8812 25.2313C15.4687 25.2313 15.1937 24.9563 15.1937 24.5438C15.1937 24.3375 15.3312 24.0625 15.4687 23.9938C17.6 22.55 19.1812 18.7688 19.7312 16.9125C20.2125 15.7438 20.8312 14.7125 21.725 13.8875C21.2437 13.5438 20.6937 13.1313 20.2125 12.7875C19.9375 12.5813 19.8687 12.3063 19.9375 12.0313C20.2812 10.8625 21.175 9.96875 22.275 9.55625C22.4812 9.4875 22.6875 9.55625 22.8937 9.625C22.8937 9.625 24.0625 10.45 25.2312 11.2063C26.675 10.0375 28.325 9.2125 30.1125 8.6625C30.4562 8.525 30.8687 8.8 30.9375 9.14375C31.075 9.4875 30.8 9.9 30.4562 9.96875C30.4562 9.96875 27.4312 10.7938 25.7812 12.5125C25.575 12.7188 25.2312 12.7875 24.9562 12.65C23.9937 12.1 22.9625 11.3438 22.4125 11C22 11.275 21.6562 11.6188 21.45 12.0313C22.275 12.5813 23.1687 13.2 23.1687 13.2C23.375 13.3375 23.4437 13.475 23.5125 13.75C23.5125 13.9563 23.4437 14.1625 23.3062 14.3C22.825 14.7813 21.3812 16.225 21.1062 17.325C21.0375 17.5313 19.3187 23.1 16.2937 25.1625C16.1562 25.1625 16.0187 25.2313 15.8812 25.2313Z" fill="#1F62FE"/>
<path d="M20.35 14.3688C19.9375 14.3688 19.6625 14.0938 19.6625 13.6813C19.5937 11.275 21.45 9.21251 23.8562 9.07501H23.925C24.3375 9.07501 24.6125 9.35001 24.6812 9.69376C24.6812 10.1063 24.4062 10.3813 24.0625 10.45C22.4125 10.45 21.0375 11.825 21.0375 13.5438C21.0375 13.6125 21.0375 13.6125 21.0375 13.6813C21.0375 14.025 20.7625 14.3688 20.35 14.3688Z" fill="#1F62FE"/>
<path d="M21.3813 7.28751C21.0375 7.28751 20.7625 7.08126 20.6938 6.73751L20.2125 4.88126C20.1438 4.53751 20.35 4.12501 20.6938 4.05626C21.0375 3.98751 21.45 4.19376 21.5188 4.53751L22 6.46251C22.0688 6.80626 21.8625 7.21876 21.5188 7.28751C21.45 7.28751 21.45 7.28751 21.3813 7.28751Z" fill="#1F62FE"/>
<path d="M22.9625 7.21877C22.55 7.21877 22.275 6.87502 22.275 6.46252L22.4125 4.60627C22.4125 4.19377 22.7562 3.91877 23.1687 3.98752C23.5812 3.98752 23.8562 4.33127 23.7875 4.74377L23.65 6.53127C23.65 6.94377 23.3062 7.21877 22.9625 7.21877Z" fill="#1F62FE"/>
<path d="M12.5125 18.4938H12.4437C12.1 18.425 11.825 18.0813 11.825 17.7375C11.8937 16.8438 11.8937 16.0188 11.825 15.125C11.6875 14.025 11.275 12.3063 11.275 12.3063C11.2062 12.0313 11.3437 11.6875 11.6187 11.55C12.375 11.1375 13.2 10.8625 14.0937 10.6563C14.3687 10.5875 14.575 10.725 14.7125 10.9313L15.2625 11.6188L14.2312 12.5125L13.8875 12.1C13.475 12.2375 13.1312 12.375 12.7187 12.5125C12.8562 13.1313 13.0625 14.0938 13.2 14.9188C13.3375 15.8813 13.3375 16.9125 13.2 17.875C13.2 18.2188 12.8562 18.4938 12.5125 18.4938Z" fill="#1F62FE"/>
</svg>
