<svg width="45" height="45" viewBox="0 0 45 45" fill="none" xmlns="http://www.w3.org/2000/svg">
<path d="M31.5752 24.9062C36.7011 24.9062 40.8564 20.7509 40.8564 15.625C40.8564 10.4991 36.7011 6.34375 31.5752 6.34375C26.4493 6.34375 22.2939 10.4991 22.2939 15.625C22.2939 20.7509 26.4493 24.9062 31.5752 24.9062Z" fill="#C2D6E7"/>
<path d="M29.8561 39.9625H15.1436C14.7311 39.9625 14.4561 39.6875 14.4561 39.275V11.6375C14.4561 11.225 14.7311 10.95 15.1436 10.95C15.5561 10.95 15.8311 11.225 15.8311 11.6375V38.5875H29.1686V11.6375C29.1686 11.225 29.4436 10.95 29.8561 10.95C30.2686 10.95 30.5436 11.225 30.5436 11.6375V39.275C30.5436 39.6875 30.2686 39.9625 29.8561 39.9625Z" fill="#1F62FE"/>
<path d="M30.4059 12.325H14.5934C13.9059 12.325 13.2871 11.775 13.2871 11.0875V9.09376C13.2871 8.40626 13.8371 7.85626 14.5934 7.85626H30.4059C31.0934 7.85626 31.6434 8.40626 31.6434 9.16251V11.1563C31.6434 11.7063 31.0934 12.325 30.4059 12.325ZM14.6621 10.95H30.2684V9.16251H14.6621V10.95Z" fill="#1F62FE"/>
<path d="M15.1436 39.9625H6.5498C6.1373 39.9625 5.8623 39.6875 5.8623 39.275V18.3063C5.8623 17.8938 6.1373 17.6188 6.5498 17.6188H15.1436C15.5561 17.6188 15.8311 17.8938 15.8311 18.3063C15.8311 18.7188 15.5561 18.9938 15.1436 18.9938H7.2373V38.5875H15.1436C15.5561 38.5875 15.8311 38.8625 15.8311 39.275C15.8311 39.6875 15.4873 39.9625 15.1436 39.9625Z" fill="#1F62FE"/>
<path d="M38.4502 39.9625H29.8564C29.4439 39.9625 29.1689 39.6875 29.1689 39.275C29.1689 38.8625 29.4439 38.5875 29.8564 38.5875H37.7627V18.9938H29.8564C29.4439 18.9938 29.1689 18.7188 29.1689 18.3063C29.1689 17.8938 29.4439 17.6188 29.8564 17.6188H38.4502C38.8627 17.6188 39.1377 17.8938 39.1377 18.3063V39.275C39.1377 39.6875 38.8627 39.9625 38.4502 39.9625Z" fill="#1F62FE"/>
<path d="M23.4621 22.0875H21.6059C21.1934 22.0875 20.9184 21.8125 20.9184 21.4V20.6438H20.1621C19.7496 20.6438 19.4746 20.3688 19.4746 19.9563V18.0313C19.4746 17.6188 19.7496 17.3438 20.1621 17.3438H20.9184V16.5875C20.9184 16.175 21.1934 15.9 21.6059 15.9H23.5309C23.9434 15.9 24.2184 16.175 24.2184 16.5875V17.3438H24.9746C25.3871 17.3438 25.6621 17.6188 25.6621 18.0313V19.9563C25.6621 20.3688 25.3871 20.6438 24.9746 20.6438H24.2184V21.4C24.1496 21.7438 23.8059 22.0875 23.4621 22.0875ZM22.2246 20.7125H22.7746V19.9563C22.7746 19.5438 23.0496 19.2688 23.4621 19.2688H24.2184V18.7188H23.4621C23.0496 18.7188 22.7746 18.4438 22.7746 18.0313V17.275H22.2246V18.0313C22.2246 18.4438 21.9496 18.7188 21.5371 18.7188H20.7809V19.2688H21.5371C21.9496 19.2688 22.2246 19.5438 22.2246 19.9563V20.7125Z" fill="#1F62FE"/>
<path d="M22.5 24.4938C19.475 24.4938 17 22.0188 17 18.9938C17 15.9688 19.475 13.4938 22.5 13.4938C25.525 13.4938 28 15.9688 28 18.9938C28 22.0188 25.525 24.4938 22.5 24.4938ZM22.5 14.8688C20.2313 14.8688 18.375 16.725 18.375 18.9938C18.375 21.2625 20.2313 23.1188 22.5 23.1188C24.7688 23.1188 26.625 21.2625 26.625 18.9938C26.625 16.725 24.7688 14.8688 22.5 14.8688Z" fill="#1F62FE"/>
<path d="M27.1752 39.9625C26.7627 39.9625 26.4877 39.6875 26.4877 39.275V28H18.5127V39.275C18.5127 39.6875 18.2377 39.9625 17.8252 39.9625C17.4127 39.9625 17.1377 39.6875 17.1377 39.275V27.3125C17.1377 26.9 17.4127 26.625 17.8252 26.625H27.1752C27.5877 26.625 27.8627 26.9 27.8627 27.3125V39.275C27.8627 39.6875 27.5189 39.9625 27.1752 39.9625Z" fill="#1F62FE"/>
<path d="M22.5 39.9625C22.0875 39.9625 21.8125 39.6875 21.8125 39.275V27.3125C21.8125 26.9 22.0875 26.625 22.5 26.625C22.9125 26.625 23.1875 26.9 23.1875 27.3125V39.275C23.1875 39.6875 22.9125 39.9625 22.5 39.9625Z" fill="#1F62FE"/>
<path d="M24.4248 32.8125C24.0123 32.8125 23.7373 32.5375 23.7373 32.125V31.2313C23.7373 30.8188 24.0123 30.5438 24.4248 30.5438C24.8373 30.5438 25.1123 30.8188 25.1123 31.2313V32.125C25.1123 32.5375 24.7686 32.8125 24.4248 32.8125Z" fill="#1F62FE"/>
<path d="M20.5752 32.8125C20.1627 32.8125 19.8877 32.5375 19.8877 32.125V31.2313C19.8877 30.8188 20.1627 30.5438 20.5752 30.5438C20.9877 30.5438 21.2627 30.8188 21.2627 31.2313V32.125C21.2627 32.5375 20.9877 32.8125 20.5752 32.8125Z" fill="#1F62FE"/>
<path d="M12.875 30.6125H8.75C8.3375 30.6125 8.0625 30.3375 8.0625 29.925V23.05C8.0625 22.6375 8.3375 22.3625 8.75 22.3625H12.875C13.2875 22.3625 13.5625 22.6375 13.5625 23.05V29.925C13.5625 30.3375 13.2875 30.6125 12.875 30.6125ZM9.4375 29.2375H12.1875V23.7375H9.4375V29.2375Z" fill="#1F62FE"/>
<path d="M36.1813 30.6125H32.125C31.7125 30.6125 31.4375 30.3375 31.4375 29.925V23.05C31.4375 22.6375 31.7125 22.3625 32.125 22.3625H36.25C36.6625 22.3625 36.9375 22.6375 36.9375 23.05V29.925C36.9375 30.3375 36.6625 30.6125 36.1813 30.6125C36.25 30.6125 36.25 30.6125 36.1813 30.6125ZM32.7438 29.2375H35.4938V23.7375H32.8125L32.7438 29.2375Z" fill="#1F62FE"/>
</svg>
