<svg width="44" height="44" viewBox="0 0 44 44" fill="none" xmlns="http://www.w3.org/2000/svg">
<path d="M20.2882 5.21814V12.6638C20.2882 15.0425 19.1813 17.2906 17.2975 18.7481L12.045 22.7975" stroke="#1F62FE" stroke-width="2" stroke-miterlimit="10" stroke-linecap="round" stroke-linejoin="round"/>
<path d="M23.7119 5.21814V12.6638C23.7119 15.0425 24.8188 17.2906 26.7025 18.7481L31.955 22.7975" stroke="#1F62FE" stroke-width="2" stroke-miterlimit="10" stroke-linecap="round" stroke-linejoin="round"/>
<path d="M14.7469 24.6813L17.1944 22.7425C19.9581 20.5563 23.8563 20.5288 26.6475 22.6806L29.2463 24.6813" stroke="#1F62FE" stroke-width="2" stroke-miterlimit="10" stroke-linecap="round" stroke-linejoin="round"/>
<path d="M26.3038 18.4181C26.7988 16.1081 29.2944 14.685 31.57 15.6612C39.0844 18.8237 41.0094 27.1425 41.4013 32.8831C41.6144 36.0731 39.1531 38.7887 36.0181 38.7887H31.6113C28.6344 38.7887 26.2075 36.3344 26.2075 33.3025V22.3712" stroke="#1F62FE" stroke-width="2" stroke-miterlimit="10" stroke-linecap="round" stroke-linejoin="round"/>
<path d="M17.7788 22.3231V33.2956C17.7788 36.3275 15.3657 38.7819 12.3819 38.7819H7.97503C4.82628 38.7819 2.3719 36.0663 2.5919 32.8763C2.9769 27.1356 4.9019 18.8238 12.4163 15.6544C14.7057 14.685 17.1944 16.1013 17.6825 18.425" stroke="#1F62FE" stroke-width="2" stroke-miterlimit="10" stroke-linecap="round" stroke-linejoin="round"/>
<path d="M31.0957 24.6813L31.3638 25.0663C33.337 27.885 34.3957 31.2469 34.3957 34.6844" stroke="#1F62FE" stroke-width="2" stroke-miterlimit="10" stroke-linecap="round" stroke-linejoin="round"/>
<path d="M34.3956 21.0856V24.255L37.4206 24.6813L37.6475 26.6406" stroke="#1F62FE" stroke-width="2" stroke-miterlimit="10" stroke-linecap="round" stroke-linejoin="round"/>
<path d="M32.0857 26.1938L34.3957 24.255" stroke="#1F62FE" stroke-width="2" stroke-miterlimit="10" stroke-linecap="round" stroke-linejoin="round"/>
<path d="M33.9281 30.7725C33.9281 30.7725 37.6475 30.7725 38.17 32.8969" stroke="#1F62FE" stroke-width="2" stroke-miterlimit="10" stroke-linecap="round" stroke-linejoin="round"/>
<path d="M36.4169 31.2194L36.025 28.5794" stroke="#1F62FE" stroke-width="2" stroke-miterlimit="10" stroke-linecap="round" stroke-linejoin="round"/>
<path d="M33.1857 28.4213L31.0957 29.9544L30.0507 32.8969" stroke="#1F62FE" stroke-width="2" stroke-miterlimit="10" stroke-linecap="round" stroke-linejoin="round"/>
<path d="M12.7462 24.6813L12.4781 25.0663C10.505 27.885 9.44623 31.2469 9.44623 34.6844" stroke="#1F62FE" stroke-width="2" stroke-miterlimit="10" stroke-linecap="round" stroke-linejoin="round"/>
<path d="M9.44627 21.0856V24.255L6.42127 24.6813L6.1944 26.6406" stroke="#1F62FE" stroke-width="2" stroke-miterlimit="10" stroke-linecap="round" stroke-linejoin="round"/>
<path d="M11.7562 26.1938L9.44623 24.255" stroke="#1F62FE" stroke-width="2" stroke-miterlimit="10" stroke-linecap="round" stroke-linejoin="round"/>
<path d="M9.91375 30.7725C9.91375 30.7725 6.19437 30.7725 5.67188 32.8969" stroke="#1F62FE" stroke-width="2" stroke-miterlimit="10" stroke-linecap="round" stroke-linejoin="round"/>
<path d="M7.43188 31.2194L7.82376 28.5794" stroke="#1F62FE" stroke-width="2" stroke-miterlimit="10" stroke-linecap="round" stroke-linejoin="round"/>
<path d="M10.6631 28.4213L12.7463 29.9544L13.7913 32.8969" stroke="#1F62FE" stroke-width="2" stroke-miterlimit="10" stroke-linecap="round" stroke-linejoin="round"/>
<path d="M20.2881 11.9281H23.7118" stroke="#1F62FE" stroke-width="2" stroke-miterlimit="10" stroke-linecap="round" stroke-linejoin="round"/>
<path d="M20.2881 8.12622H23.7118" stroke="#1F62FE" stroke-width="2" stroke-miterlimit="10" stroke-linecap="round" stroke-linejoin="round"/>
</svg>
