<svg width="45" height="45" viewBox="0 0 45 45" fill="none" xmlns="http://www.w3.org/2000/svg">
<path d="M20.6436 38.4501C11.7061 38.4501 4.4873 31.2313 4.4873 22.3625C4.4873 13.425 11.7061 6.2063 20.5748 6.2063C29.5123 6.2063 36.7311 13.4251 36.7311 22.2938C36.7311 23.4625 36.5936 24.6313 36.3873 25.7313C36.3186 26.0751 35.9748 26.35 35.5623 26.2813C35.2186 26.2125 34.9436 25.8688 35.0123 25.4563C36.7311 17.4813 31.6436 9.6438 23.7373 7.92505C15.8311 6.2063 7.9248 11.2938 6.20605 19.2001C4.4873 27.1063 9.57481 35.0126 17.4811 36.7313C18.5123 36.9375 19.5436 37.0751 20.5748 37.0751C21.3311 37.0751 22.1561 37.0063 22.9123 36.8688C23.3248 36.8001 23.6686 37.0751 23.7373 37.4188C23.8061 37.8313 23.5311 38.1751 23.1873 38.2438C22.3623 38.3813 21.4686 38.4501 20.6436 38.4501Z" fill="#1F62FE"/>
<path d="M20.6436 31.6438C25.7694 31.6438 29.9248 27.4884 29.9248 22.3625C29.9248 17.2367 25.7694 13.0813 20.6436 13.0813C15.5177 13.0813 11.3623 17.2367 11.3623 22.3625C11.3623 27.4884 15.5177 31.6438 20.6436 31.6438Z" fill="#C2D6E7"/>
<path d="M20.6436 15.0063C20.2311 15.0063 19.9561 14.7313 19.9561 14.3188V12.4625C19.9561 12.05 20.2311 11.775 20.6436 11.775C21.0561 11.775 21.3311 12.05 21.3311 12.4625V14.3188C21.3311 14.6625 20.9873 15.0063 20.6436 15.0063Z" fill="#1F62FE"/>
<path d="M30.5438 23.05H28.6875C28.275 23.05 28 22.775 28 22.3625C28 21.95 28.275 21.675 28.6875 21.675H30.5438C30.9563 21.675 31.2313 21.95 31.2313 22.3625C31.2313 22.775 30.9563 23.05 30.5438 23.05Z" fill="#1F62FE"/>
<path d="M20.6436 32.8813C20.2311 32.8813 19.9561 32.6063 19.9561 32.1938V30.3375C19.9561 29.925 20.2311 29.65 20.6436 29.65C21.0561 29.65 21.3311 29.925 21.3311 30.3375V32.1938C21.3311 32.6063 20.9873 32.8813 20.6436 32.8813Z" fill="#1F62FE"/>
<path d="M12.5994 23.05H10.7432C10.3307 23.05 10.0557 22.775 10.0557 22.3625C10.0557 21.95 10.3307 21.675 10.7432 21.675H12.5994C13.0119 21.675 13.2869 21.95 13.2869 22.3625C13.2869 22.775 13.0119 23.05 12.5994 23.05Z" fill="#1F62FE"/>
<path d="M25.1812 23.0501H20.6437C20.4374 23.0501 20.2312 22.9813 20.0937 22.7751L15.5562 17.2063C15.3499 16.9313 15.3499 16.4501 15.6249 16.2438C15.8999 16.0376 16.3812 16.0376 16.5874 16.3126L20.9187 21.6751H25.1124C25.5249 21.6751 25.7999 21.9501 25.7999 22.3626C25.7999 22.7751 25.5249 23.0501 25.1812 23.0501Z" fill="#1F62FE"/>
<path d="M20.6439 35.6313C13.2189 35.7001 7.2377 29.7188 7.16895 22.3626C7.16895 14.9376 13.0814 8.88757 20.5064 8.88757C27.9314 8.88757 33.9127 14.8001 33.9814 22.2251C33.9814 23.3938 33.8439 24.6313 33.5002 25.7313C33.4314 26.0751 33.0189 26.3501 32.6752 26.2126C32.3314 26.1438 32.1252 25.7313 32.1939 25.3876C32.4689 24.4251 32.6064 23.3938 32.6064 22.3626C32.6064 15.7626 27.3127 10.4001 20.7127 10.3313C14.1127 10.2626 8.68145 15.6251 8.6127 22.2251C8.6127 28.8251 13.9064 34.1876 20.5064 34.2563C21.3314 34.2563 22.0877 34.1876 22.9127 34.0501C23.3252 33.9813 23.6689 34.2563 23.7377 34.6001C23.8064 35.0126 23.5314 35.3563 23.1877 35.4251C22.3627 35.5626 21.4689 35.6313 20.6439 35.6313Z" fill="#1F62FE"/>
<path d="M31.9877 38.7938H26.1439C25.8689 38.7938 25.5939 38.6563 25.5252 38.3813C25.3877 38.1063 25.4564 37.8313 25.6627 37.625L30.7502 32.125C31.0939 31.7125 31.3002 31.2313 31.3002 30.6813C31.3002 29.5126 30.3377 28.55 29.1689 28.55H28.8939C27.7252 28.55 26.7627 29.5126 26.7627 30.6813V31.3C26.7627 31.7125 26.4877 31.9875 26.0752 31.9875C25.6627 31.9875 25.3877 31.7125 25.3877 31.3V30.6813C25.3877 28.7563 26.9689 27.175 28.8939 27.175H29.1689C31.0939 27.175 32.6752 28.7563 32.6752 30.6813C32.6752 31.5751 32.3314 32.4001 31.7127 33.0876L27.6564 37.4875H31.9189C32.3314 37.4875 32.6064 37.7625 32.6064 38.175C32.6064 38.5875 32.4002 38.7938 31.9877 38.7938Z" fill="#1F62FE"/>
<path d="M38.3121 38.7938C37.8996 38.7938 37.6246 38.5188 37.6246 38.1063V36.3876H33.2246C32.8121 36.3876 32.5371 36.1126 32.5371 35.7001C32.5371 35.5626 32.6059 35.4251 32.6746 35.2876L37.7621 27.9313C37.9684 27.5876 38.3809 27.5188 38.7246 27.7938C38.9309 27.9313 38.9996 28.1376 38.9996 28.3438V35.0126H39.7559C40.1684 35.0126 40.4434 35.2876 40.4434 35.7001C40.4434 36.1126 40.1684 36.3876 39.7559 36.3876H38.9996V38.1063C38.9996 38.4501 38.7246 38.7938 38.3121 38.7938ZM34.5309 34.9438H37.6246V30.4751L34.5309 34.9438Z" fill="#1F62FE"/>
</svg>
