<svg width="45" height="45" viewBox="0 0 45 45" fill="none" xmlns="http://www.w3.org/2000/svg">
<path d="M15.1436 36.6625C20.2694 36.6625 24.4248 32.5071 24.4248 27.3812C24.4248 22.2553 20.2694 18.1 15.1436 18.1C10.0177 18.1 5.8623 22.2553 5.8623 27.3812C5.8623 32.5071 10.0177 36.6625 15.1436 36.6625Z" fill="#C2D6E7"/>
<path d="M22.4997 42.025C22.2247 42.025 21.9497 41.8875 21.881 41.6125L17.5497 30.9562C15.8997 31.7812 11.706 33.8437 9.36847 35.0812C6.34347 36.8687 6.68722 41.2 6.68722 41.2687C6.75597 41.6812 6.41222 41.9562 6.06847 42.025C5.65597 42.0937 5.38097 41.75 5.31222 41.4062C5.31222 41.2 4.83097 36.1812 8.68097 33.9125C11.706 32.3312 17.5497 29.4437 17.5497 29.4437C17.8935 29.3062 18.306 29.4437 18.4435 29.7875C18.4435 29.7875 18.4435 29.7875 18.4435 29.8562L23.1872 41.0625C23.3247 41.4062 23.1872 41.8187 22.8435 41.9562C22.706 42.025 22.6372 42.025 22.4997 42.025Z" fill="#1F62FE"/>
<path d="M22.4999 42.025C22.4311 42.025 22.2936 42.025 22.2249 41.9563C21.8811 41.8188 21.6749 41.4063 21.8811 41.0625L26.4874 29.7188C26.6249 29.375 27.0374 29.1688 27.3811 29.3063H27.4499C27.5186 29.3063 33.3624 32.1938 36.3186 33.775C40.1686 36.1125 39.7561 41.0625 39.7561 41.2688C39.6874 41.6813 39.4124 41.9563 38.9999 41.8875C38.5874 41.8188 38.3124 41.5437 38.3811 41.1313C38.3811 41.0625 38.7249 36.8 35.6999 35.0125C33.3624 33.775 29.1686 31.7125 27.5874 30.8875L23.1874 41.5438C23.0499 41.8188 22.7749 42.025 22.4999 42.025Z" fill="#1F62FE"/>
<path d="M29.856 37.1437C29.581 37.1437 29.306 37.0062 29.2373 36.7312L26.4873 30.2687C26.3498 29.925 26.4873 29.5125 26.831 29.375C27.1748 29.2375 27.5873 29.375 27.7248 29.7187L30.4748 36.1812C30.6123 36.525 30.4748 36.9375 30.131 37.075C30.0623 37.1437 29.9935 37.1437 29.856 37.1437Z" fill="#1F62FE"/>
<path d="M32.9502 41.9562H32.2627C31.8502 41.9562 31.5752 41.6812 31.5752 41.2687C31.5752 40.8562 31.8502 40.5812 32.2627 40.5812V39.55C32.2627 38.2437 31.1627 37.1437 29.8564 37.1437C28.5502 37.1437 27.4502 38.2437 27.4502 39.55V40.5812C27.8627 40.5812 28.1377 40.8562 28.1377 41.2687C28.1377 41.6812 27.8627 41.9562 27.4502 41.9562H26.7627C26.3502 41.9562 26.0752 41.6812 26.0752 41.2687V39.55C26.0752 37.4875 27.7252 35.7687 29.8564 35.7687C31.9877 35.7687 33.6377 37.4187 33.6377 39.55V41.2687C33.6377 41.6812 33.2939 41.9562 32.9502 41.9562Z" fill="#1F62FE"/>
<path d="M15.1433 38.8625C15.0745 38.8625 15.0058 38.8625 14.937 38.8625C14.5933 38.725 14.387 38.3812 14.5245 37.9687L17.2745 29.7875C17.412 29.4437 17.7558 29.2375 18.1683 29.375C18.512 29.5125 18.7183 29.8562 18.5808 30.2687L15.8308 38.45C15.6933 38.725 15.4183 38.8625 15.1433 38.8625Z" fill="#1F62FE"/>
<path d="M15.1437 42.025C13.9062 42.025 12.875 40.9937 12.875 39.7562C12.875 38.5187 13.9062 37.4875 15.1437 37.4875C16.3812 37.4875 17.4125 38.5187 17.4125 39.7562C17.4125 40.9937 16.3812 42.025 15.1437 42.025ZM15.1437 38.8625C14.6625 38.8625 14.25 39.275 14.25 39.7562C14.25 40.2375 14.6625 40.65 15.1437 40.65C15.625 40.65 16.0375 40.2375 16.0375 39.7562C15.9688 39.275 15.625 38.8625 15.1437 38.8625Z" fill="#1F62FE"/>
<path d="M24.6314 35.7687H20.2314C19.8189 35.7687 19.5439 35.4937 19.5439 35.0812C19.5439 34.6687 19.8189 34.3937 20.2314 34.3937H24.6314C25.0439 34.3937 25.3189 34.6687 25.3189 35.0812C25.3189 35.4937 24.9752 35.7687 24.6314 35.7687Z" fill="#1F62FE"/>
<path d="M19.75 20.025C19.2 20.025 18.7188 19.5437 18.7188 18.9937C18.7188 18.7187 18.8562 18.4437 19.0625 18.2375C19.475 17.8937 20.0938 17.8937 20.5063 18.2375C20.575 18.3062 20.575 18.3062 20.6437 18.375C20.7125 18.4437 20.7125 18.5125 20.7125 18.5812C20.7125 18.65 20.7812 18.7187 20.7812 18.7875C20.9188 19.3375 20.5062 19.8875 19.9562 20.025C19.8875 20.025 19.8188 20.025 19.75 20.025Z" fill="#1F62FE"/>
<path d="M25.0433 20.025C24.7683 20.025 24.4933 19.8875 24.287 19.75C24.2183 19.6812 24.2183 19.6812 24.1495 19.6125C24.0808 19.5437 24.0808 19.475 24.0808 19.4062C24.0808 19.3375 24.012 19.2687 24.012 19.2C23.9433 18.8562 24.0808 18.5125 24.287 18.2375C24.6995 17.825 25.3183 17.825 25.7308 18.2375C26.0058 18.5125 26.0745 18.8562 26.0058 19.2C26.0058 19.2687 26.0058 19.3375 25.937 19.4062C25.937 19.475 25.8683 19.5437 25.8683 19.6125C25.7995 19.6812 25.7995 19.75 25.7308 19.75C25.5933 19.9562 25.3183 20.025 25.0433 20.025Z" fill="#1F62FE"/>
<path d="M22.3622 24.8375C21.2622 24.7687 20.2309 24.3562 19.4059 23.6687C19.1309 23.3937 19.0622 22.9812 19.3372 22.7062C19.5434 22.4312 19.9559 22.3625 20.2309 22.5687C21.7434 23.7375 23.0497 23.7375 24.2184 22.6375C24.4934 22.3625 24.9059 22.3625 25.1809 22.6375C25.4559 22.9125 25.4559 23.325 25.1809 23.6C24.4247 24.425 23.4622 24.8375 22.3622 24.8375Z" fill="#1F62FE"/>
<path d="M22.4998 29.0312C21.1936 29.0312 19.8873 28.6187 18.8561 27.7937C14.5936 24.425 14.1123 18.7875 14.1123 18.5812C14.1123 18.1687 14.3873 17.8937 14.7311 17.825C15.1436 17.825 15.4186 18.1 15.4873 18.4437C15.4873 18.5125 15.9686 23.7375 19.7498 26.6937C21.3998 27.9312 23.5998 27.9312 25.2498 26.6937C26.8311 25.4562 27.9998 23.8062 28.6186 21.8812C28.9623 20.7812 29.1686 19.6125 29.1686 18.4437C29.1686 18.0312 29.4436 17.7562 29.8561 17.7562C30.2686 17.7562 30.5436 18.0312 30.5436 18.4437C30.4748 19.75 30.2686 21.0562 29.9248 22.3625C29.1686 24.4937 27.8623 26.4187 26.0748 27.7937C25.0436 28.6187 23.8061 29.0312 22.4998 29.0312Z" fill="#1F62FE"/>
<path d="M14.8687 15.075C14.1812 15.075 13.5625 14.525 13.5625 13.7687C13.5625 8.95623 17.3437 5.03748 22.0875 4.83123C26.9 4.76248 30.8875 8.61248 30.9562 13.425V13.4937C30.9562 13.9062 30.6812 14.1812 30.2687 14.1812C29.8562 14.1812 29.5812 13.9062 29.5812 13.4937C29.5812 9.43748 26.2812 6.13748 22.225 6.13748C22.1562 6.13748 22.1562 6.13748 22.0875 6.13748C18.1 6.34373 14.9375 9.64373 14.9375 13.7H18.0312C22.8438 13.6312 24.5625 10.7437 24.5625 10.675C24.7688 10.3312 25.1813 10.1937 25.525 10.4C25.8688 10.6062 26.0062 11.0187 25.8 11.3625C25.7312 11.5 23.6687 15.0062 18.0312 15.075H14.8687Z" fill="#1F62FE"/>
<path d="M33.0181 26.5562C31.9868 26.5562 31.0243 26.1437 30.2681 25.3875C29.9931 25.1125 29.9931 24.7 30.1993 24.425C30.4056 24.15 30.8868 24.15 31.1618 24.3562C31.9181 25.1812 33.0868 25.3875 34.0493 24.9062C34.6681 24.6312 35.2181 24.0812 35.5618 23.4625C32.6743 23.05 32.7431 19.8187 32.8806 15.7625C32.8806 14.8 32.9493 13.8375 32.9493 12.7375C32.9493 11.225 32.6056 10.1937 31.8493 9.71249C30.7493 8.95624 29.0306 9.50624 29.0306 9.50624C28.6868 9.64374 28.2743 9.43749 28.1368 9.09374C27.9993 8.74999 28.2056 8.33749 28.5493 8.19999C28.6181 8.19999 30.9556 7.37499 32.6056 8.54374C33.7056 9.29999 34.3243 10.7437 34.3243 12.7375C34.3243 13.8375 34.3243 14.8 34.2556 15.7625C34.1181 20.2312 34.2556 21.8812 35.9056 22.0875C36.4556 22.0875 36.8681 22.5 37.0056 22.9812C37.2118 23.875 36.3181 25.25 35.0118 25.9375C34.4618 26.35 33.7743 26.5562 33.0181 26.5562Z" fill="#1F62FE"/>
<path d="M30.0623 16.2437C28.0685 16.3125 26.1435 15.2812 25.1123 13.5625C24.9748 13.2187 25.0435 12.8062 25.3873 12.6687C25.731 12.4625 26.1435 12.6 26.281 12.9437C27.106 14.25 28.6185 15.0062 30.1998 14.8687C30.6123 14.8687 30.8873 15.1437 30.8873 15.5562C30.8873 15.9687 30.6123 16.2437 30.1998 16.2437H30.0623Z" fill="#1F62FE"/>
</svg>
