<svg width="45" height="45" viewBox="0 0 45 45" fill="none" xmlns="http://www.w3.org/2000/svg">
<path d="M27.9316 23.6C33.0575 23.6 37.2129 19.4446 37.2129 14.3187C37.2129 9.19283 33.0575 5.03748 27.9316 5.03748C22.8057 5.03748 18.6504 9.19283 18.6504 14.3187C18.6504 19.4446 22.8057 23.6 27.9316 23.6Z" fill="#C2D6E7"/>
<path d="M35.5625 37.9688H9.4375C8.26875 37.9688 7.375 37.075 7.375 35.9062V30.4062C7.375 29.9937 7.65 29.7188 8.0625 29.7188C8.475 29.7188 8.75 29.9937 8.75 30.4062V35.9062C8.75 36.3187 9.025 36.5938 9.4375 36.5938H35.5625C35.975 36.5938 36.25 36.3187 36.25 35.9062V30.4062C36.25 29.9937 36.525 29.7188 36.9375 29.7188C37.35 29.7188 37.625 29.9937 37.625 30.4062V35.9062C37.625 37.0062 36.7313 37.9688 35.5625 37.9688Z" fill="#1F62FE"/>
<path d="M36.9375 31.0938H8.0625C6.89375 31.0938 6 30.2 6 29.0312V13.9062C6 12.7375 6.89375 11.8438 8.0625 11.8438H36.9375C38.1063 11.8438 39 12.7375 39 13.9062V29.0312C39 30.1313 38.1063 31.0938 36.9375 31.0938ZM8.0625 13.2188C7.65 13.2188 7.375 13.4937 7.375 13.9062V29.0312C7.375 29.4438 7.65 29.7188 8.0625 29.7188H36.9375C37.35 29.7188 37.625 29.4438 37.625 29.0312V13.9062C37.625 13.4937 37.35 13.2188 36.9375 13.2188H8.0625Z" fill="#1F62FE"/>
<path d="M30.3377 12.5312C29.9252 12.5312 29.6502 12.2562 29.6502 11.8438V10.4688H15.0752V11.8438C15.0752 12.2562 14.8002 12.5312 14.3877 12.5312C13.9752 12.5312 13.7002 12.2562 13.7002 11.8438V9.78125C13.7002 9.36875 13.9752 9.09375 14.3877 9.09375H30.4064C30.8189 9.09375 31.0939 9.36875 31.0939 9.78125V11.8438C31.0252 12.2562 30.7502 12.5312 30.3377 12.5312Z" fill="#1F62FE"/>
<path d="M15.8996 33.1562H12.2559C11.8434 33.1562 11.5684 32.8812 11.5684 32.4688V31.0938C11.5684 30.6812 11.8434 30.4062 12.2559 30.4062C12.6684 30.4062 12.9434 30.6812 12.9434 31.0938V31.7812H15.2121V31.0938C15.2121 30.6812 15.4871 30.4062 15.8996 30.4062C16.3121 30.4062 16.5871 30.6812 16.5871 31.0938V32.4688C16.5871 32.8125 16.3121 33.1562 15.8996 33.1562Z" fill="#1F62FE"/>
<path d="M32.675 33.1562H29.0312C28.6187 33.1562 28.3438 32.8812 28.3438 32.4688V31.0938C28.3438 30.6812 28.6187 30.4062 29.0312 30.4062C29.4437 30.4062 29.7187 30.6812 29.7187 31.0938V31.7812H31.9875V31.0938C31.9875 30.6812 32.2625 30.4062 32.675 30.4062C33.0875 30.4062 33.3625 30.6812 33.3625 31.0938V32.4688C33.3625 32.8125 33.0875 33.1562 32.675 33.1562Z" fill="#1F62FE"/>
<path d="M23.5996 25.3188H21.1246C20.7121 25.3188 20.4371 25.0438 20.4371 24.6313V23.3938H19.1309C18.7184 23.3938 18.4434 23.1188 18.4434 22.7063V20.2313C18.4434 19.8188 18.7184 19.5438 19.1309 19.5438H20.4371V18.3063C20.4371 17.8938 20.7121 17.6188 21.1246 17.6188H23.5996C24.0121 17.6188 24.2871 17.8938 24.2871 18.3063V19.5438H25.5246C25.9371 19.5438 26.2121 19.8188 26.2121 20.2313V22.7063C26.2121 23.1188 25.9371 23.3938 25.5246 23.3938H24.2184V24.6313C24.2871 25.0438 24.0121 25.3188 23.5996 25.3188ZM21.8121 23.9438H22.9121V22.7063C22.9121 22.2938 23.1871 22.0188 23.5996 22.0188H24.8371V20.9188H23.5996C23.1871 20.9188 22.9121 20.6438 22.9121 20.2313V18.9938H21.8121V20.2313C21.8121 20.6438 21.5371 20.9188 21.1246 20.9188H19.8184V22.0188H21.1246C21.5371 22.0188 21.8121 22.2938 21.8121 22.7063V23.9438Z" fill="#1F62FE"/>
<path d="M22.3625 28.4812C18.4437 28.4812 15.2812 25.3187 15.2812 21.4C15.2812 17.4812 18.4437 14.3187 22.3625 14.3187C26.2812 14.3187 29.4437 17.4812 29.4437 21.4C29.4437 25.3187 26.2812 28.4812 22.3625 28.4812ZM22.3625 15.7625C19.2 15.7625 16.6562 18.3062 16.6562 21.4687C16.6562 24.6312 19.2 27.175 22.3625 27.175C25.525 27.175 28.0687 24.6312 28.0687 21.4687C28.0687 18.3062 25.525 15.7625 22.3625 15.7625Z" fill="#1F62FE"/>
</svg>
