<svg width="36" height="36" viewBox="0 0 36 36" fill="none" xmlns="http://www.w3.org/2000/svg">
<path d="M18.0562 3.32434C18.0562 3.32434 14.1919 5.16934 14.0287 9.43872" stroke="#1F62FE" stroke-width="2" stroke-miterlimit="10" stroke-linecap="round" stroke-linejoin="round"/>
<path d="M25.9368 8.38684C25.9368 8.38684 28.3725 11.8237 24.2775 16.7512" stroke="#1F62FE" stroke-width="2" stroke-miterlimit="10" stroke-linecap="round" stroke-linejoin="round"/>
<path d="M18.0562 3.32437C19.1194 2.93624 27.4837 0.191241 30.1781 6.60374C32.04 11.0531 30.8194 14.0456 29.4019 16.2169C28.2319 18.0112 27.3656 19.9856 26.9662 22.0894C26.5894 24.0637 26.1394 26.9269 25.7062 30.9262C25.2394 35.2462 21.1894 34.1775 20.5144 28.5919C20.3062 26.8931 19.98 25.5319 19.6256 24.4631C19.0912 22.8487 16.7906 22.8319 16.2337 24.4462C15.8681 25.5206 15.525 26.8875 15.3169 28.5975C14.6362 34.1775 10.6706 35.1112 10.2487 30.7687C10.0181 28.3894 9.76499 26.4262 9.51187 24.8231C9.02249 21.7181 7.92562 18.7537 6.32812 16.0481C5.11874 14.0006 3.96562 10.3837 5.92312 6.60937C9.13499 0.433116 16.9819 2.93624 18.045 3.32437M18.0562 3.32437C18.045 3.32437 18.045 3.32437 18.045 3.32437M18.0562 3.32437H18.045" stroke="#1F62FE" stroke-width="2" stroke-miterlimit="10" stroke-linecap="round" stroke-linejoin="round"/>
</svg>
