<svg width="44" height="44" viewBox="0 0 44 44" fill="none" xmlns="http://www.w3.org/2000/svg">
<path d="M24.2068 3.22437V12.1687C24.2068 12.87 24.5231 13.53 25.0662 13.9769L30.1056 18.0881C31.0887 18.8856 31.3018 20.3019 30.6006 21.3537C29.6999 22.715 27.7474 22.8319 26.6887 21.6012L23.7737 18.2187C22.8456 17.1394 21.1749 17.1394 20.2468 18.2187L17.3318 21.6012C16.2662 22.8319 14.3206 22.715 13.4199 21.3537C12.7187 20.3019 12.9318 18.8856 13.9149 18.0881L18.9543 13.9769C19.4974 13.5369 19.8137 12.87 19.8137 12.1687V3.22437" stroke="#1F62FE" stroke-width="2" stroke-miterlimit="10" stroke-linecap="round" stroke-linejoin="round"/>
<path d="M27.4862 15.95C27.4862 15.95 30.5456 15.1456 31.0062 11.22" stroke="#1F62FE" stroke-width="2" stroke-miterlimit="10" stroke-linecap="round" stroke-linejoin="round"/>
<path d="M30.6144 12.8425H32.7869" stroke="#1F62FE" stroke-width="2" stroke-miterlimit="10" stroke-linecap="round" stroke-linejoin="round"/>
<path d="M30.7863 21.01C30.7863 21.01 32.3194 23.9456 38.3831 23.1344" stroke="#1F62FE" stroke-width="2" stroke-miterlimit="10" stroke-linecap="round" stroke-linejoin="round"/>
<path d="M37.2693 20.6456L36.4512 23.2238" stroke="#1F62FE" stroke-width="2" stroke-miterlimit="10" stroke-linecap="round" stroke-linejoin="round"/>
<path d="M34.54 23.1275L35.7638 25.6713C36.19 26.5581 37.0838 27.115 38.06 27.115H40.1294" stroke="#1F62FE" stroke-width="2" stroke-miterlimit="10" stroke-linecap="round" stroke-linejoin="round"/>
<path d="M28.9644 22.3506C28.9644 22.3506 26.9569 28.5312 31.0063 31.2812C35.0557 34.0312 31.7007 40.7756 31.7007 40.7756" stroke="#1F62FE" stroke-width="2" stroke-miterlimit="10" stroke-linecap="round" stroke-linejoin="round"/>
<path d="M28.4832 26.1869C26.7507 25.96 25.1419 26.895 24.3719 28.3525C24.0625 28.93 23.8838 29.5969 23.8838 30.305V32.2506" stroke="#1F62FE" stroke-width="2" stroke-miterlimit="10" stroke-linecap="round" stroke-linejoin="round"/>
<path d="M24.3719 28.3525L22.5844 26.1525" stroke="#1F62FE" stroke-width="2" stroke-miterlimit="10" stroke-linecap="round" stroke-linejoin="round"/>
<path d="M33.0068 34.43C33.0068 34.43 38.3831 35.5506 38.885 40.7756" stroke="#1F62FE" stroke-width="2" stroke-miterlimit="10" stroke-linecap="round" stroke-linejoin="round"/>
<path d="M35.4888 35.475C35.4888 35.475 36.6369 36.685 35.9425 39.4487" stroke="#1F62FE" stroke-width="2" stroke-miterlimit="10" stroke-linecap="round" stroke-linejoin="round"/>
<path d="M36.4512 36.1625L36.788 35.97C38.4862 34.9938 40.528 34.815 42.3637 35.475" stroke="#1F62FE" stroke-width="2" stroke-miterlimit="10" stroke-linecap="round" stroke-linejoin="round"/>
<path d="M16.5138 15.95C16.5138 15.95 13.4544 15.1456 12.9938 11.22" stroke="#1F62FE" stroke-width="2" stroke-miterlimit="10" stroke-linecap="round" stroke-linejoin="round"/>
<path d="M13.3856 12.8425H11.2131" stroke="#1F62FE" stroke-width="2" stroke-miterlimit="10" stroke-linecap="round" stroke-linejoin="round"/>
<path d="M13.2137 21.01C13.2137 21.01 11.6806 23.9456 5.61682 23.1344" stroke="#1F62FE" stroke-width="2" stroke-miterlimit="10" stroke-linecap="round" stroke-linejoin="round"/>
<path d="M6.73059 20.6456L7.54872 23.2238" stroke="#1F62FE" stroke-width="2" stroke-miterlimit="10" stroke-linecap="round" stroke-linejoin="round"/>
<path d="M9.45994 23.1275L8.23619 25.6713C7.80994 26.5581 6.91619 27.115 5.93994 27.115H3.87744" stroke="#1F62FE" stroke-width="2" stroke-miterlimit="10" stroke-linecap="round" stroke-linejoin="round"/>
<path d="M15.0356 22.3506C15.0356 22.3506 17.0431 28.5312 12.9937 31.2812C8.94437 34.0312 12.2994 40.7756 12.2994 40.7756" stroke="#1F62FE" stroke-width="2" stroke-miterlimit="10" stroke-linecap="round" stroke-linejoin="round"/>
<path d="M13.255 31.2537C15.07 33.0687 18.1088 32.8419 19.5525 30.7244" stroke="#1F62FE" stroke-width="2" stroke-miterlimit="10" stroke-linecap="round" stroke-linejoin="round"/>
<path d="M14.9806 32.285L17.3318 35.3306" stroke="#1F62FE" stroke-width="2" stroke-miterlimit="10" stroke-linecap="round" stroke-linejoin="round"/>
<path d="M10.9931 34.43C10.9931 34.43 5.61687 35.5506 5.11499 40.7756" stroke="#1F62FE" stroke-width="2" stroke-miterlimit="10" stroke-linecap="round" stroke-linejoin="round"/>
<path d="M8.51122 35.475C8.51122 35.475 7.36309 36.685 8.05747 39.4487" stroke="#1F62FE" stroke-width="2" stroke-miterlimit="10" stroke-linecap="round" stroke-linejoin="round"/>
<path d="M7.54873 36.1625L7.21186 35.97C5.51373 34.9938 3.47186 34.815 1.63623 35.475" stroke="#1F62FE" stroke-width="2" stroke-miterlimit="10" stroke-linecap="round" stroke-linejoin="round"/>
</svg>
